<mxfile host="app.diagrams.net" agent="Mozilla/5.0 (Macintosh; Intel Mac OS X 10_15_7) AppleWebKit/537.36 (KHTML, like Gecko) Chrome/139.0.0.0 Safari/537.36" version="28.1.1" pages="2">
  <diagram name="Dual 3-Node Cluster" id="JNO7GrEvXTaNMITTnxWC">
    <mxGraphModel dx="5114" dy="1626" grid="1" gridSize="10" guides="1" tooltips="1" connect="1" arrows="1" fold="1" page="1" pageScale="1" pageWidth="850" pageHeight="1100" math="0" shadow="0">
      <root>
        <mxCell id="0" />
        <mxCell id="1" parent="0" />
        <mxCell id="u-dDMK2dxkakxFX6j91s-5" value="" style="shape=mxgraph.rack.cisco.cisco_catalyst_4948_switch;html=1;labelPosition=right;align=left;spacingLeft=15;dashed=0;shadow=0;fillColor=#ffffff;" parent="1" vertex="1">
          <mxGeometry x="60" y="140" width="536.74" height="50" as="geometry" />
        </mxCell>
        <mxCell id="u-dDMK2dxkakxFX6j91s-7" value="" style="sketch=0;points=[[0.015,0.015,0],[0.985,0.015,0],[0.985,0.985,0],[0.015,0.985,0],[0.25,0,0],[0.5,0,0],[0.75,0,0],[1,0.25,0],[1,0.5,0],[1,0.75,0],[0.75,1,0],[0.5,1,0],[0.25,1,0],[0,0.75,0],[0,0.5,0],[0,0.25,0]];verticalLabelPosition=bottom;html=1;verticalAlign=top;aspect=fixed;align=center;pointerEvents=1;shape=mxgraph.cisco19.rect;prIcon=ucs_c_series_server;fillColor=#FAFAFA;strokeColor=#005073;" parent="1" vertex="1">
          <mxGeometry x="580" y="480" width="162" height="60" as="geometry" />
        </mxCell>
        <mxCell id="u-dDMK2dxkakxFX6j91s-4" value="" style="verticalLabelPosition=bottom;html=1;verticalAlign=top;align=center;strokeColor=none;fillColor=#00BEF2;shape=mxgraph.azure.server;" parent="1" vertex="1">
          <mxGeometry x="70" y="440" width="162" height="60" as="geometry" />
        </mxCell>
        <mxCell id="u-dDMK2dxkakxFX6j91s-8" value="" style="sketch=0;points=[[0.015,0.015,0],[0.985,0.015,0],[0.985,0.985,0],[0.015,0.985,0],[0.25,0,0],[0.5,0,0],[0.75,0,0],[1,0.25,0],[1,0.5,0],[1,0.75,0],[0.75,1,0],[0.5,1,0],[0.25,1,0],[0,0.75,0],[0,0.5,0],[0,0.25,0]];verticalLabelPosition=bottom;html=1;verticalAlign=top;aspect=fixed;align=center;pointerEvents=1;shape=mxgraph.cisco19.rect;prIcon=ucs_c_series_server;fillColor=#FAFAFA;strokeColor=#005073;" parent="1" vertex="1">
          <mxGeometry x="580" y="420" width="162" height="60" as="geometry" />
        </mxCell>
        <mxCell id="u-dDMK2dxkakxFX6j91s-9" value="" style="sketch=0;points=[[0.015,0.015,0],[0.985,0.015,0],[0.985,0.985,0],[0.015,0.985,0],[0.25,0,0],[0.5,0,0],[0.75,0,0],[1,0.25,0],[1,0.5,0],[1,0.75,0],[0.75,1,0],[0.5,1,0],[0.25,1,0],[0,0.75,0],[0,0.5,0],[0,0.25,0]];verticalLabelPosition=bottom;html=1;verticalAlign=top;aspect=fixed;align=center;pointerEvents=1;shape=mxgraph.cisco19.rect;prIcon=ucs_c_series_server;fillColor=#FAFAFA;strokeColor=#005073;" parent="1" vertex="1">
          <mxGeometry x="580" y="540" width="162" height="60" as="geometry" />
        </mxCell>
        <mxCell id="u-dDMK2dxkakxFX6j91s-10" value="" style="endArrow=open;startArrow=open;html=1;rounded=1;fillColor=#1ba1e2;strokeColor=#006EAF;strokeWidth=2;startFill=0;endFill=0;elbow=vertical;entryX=0.346;entryY=1.028;entryDx=0;entryDy=0;entryPerimeter=0;edgeStyle=orthogonalEdgeStyle;flowAnimation=0;curved=0;startSize=11;endSize=10;sourcePerimeterSpacing=0;exitX=0.8;exitY=-0.038;exitDx=0;exitDy=0;exitPerimeter=0;" parent="1" source="u-dDMK2dxkakxFX6j91s-4" target="u-dDMK2dxkakxFX6j91s-5" edge="1">
          <mxGeometry width="50" height="50" relative="1" as="geometry">
            <mxPoint x="200" y="420" as="sourcePoint" />
            <mxPoint x="310" y="270" as="targetPoint" />
          </mxGeometry>
        </mxCell>
        <mxCell id="u-dDMK2dxkakxFX6j91s-21" value="" style="endArrow=none;startArrow=none;html=1;rounded=1;fillColor=#d0cee2;strokeColor=#56517e;strokeWidth=3;startFill=0;endFill=0;elbow=vertical;flowAnimation=0;entryX=0.999;entryY=0.816;entryDx=0;entryDy=0;entryPerimeter=0;startSize=11;endSize=10;sourcePerimeterSpacing=0;dashed=1;dashPattern=1 1;edgeStyle=orthogonalEdgeStyle;exitX=1;exitY=0.5;exitDx=0;exitDy=0;exitPerimeter=0;" parent="1" source="u-dDMK2dxkakxFX6j91s-8" target="u-dDMK2dxkakxFX6j91s-5" edge="1">
          <mxGeometry width="50" height="50" relative="1" as="geometry">
            <mxPoint x="760" y="300" as="sourcePoint" />
            <mxPoint x="640" y="300" as="targetPoint" />
          </mxGeometry>
        </mxCell>
        <mxCell id="u-dDMK2dxkakxFX6j91s-23" value="" style="endArrow=open;startArrow=open;html=1;rounded=1;fillColor=#1ba1e2;strokeColor=#006EAF;strokeWidth=2;startFill=0;endFill=0;elbow=vertical;flowAnimation=0;entryX=0.866;entryY=0.972;entryDx=0;entryDy=0;entryPerimeter=0;startSize=11;endSize=10;sourcePerimeterSpacing=0;" parent="1" edge="1">
          <mxGeometry width="50" height="50" relative="1" as="geometry">
            <mxPoint x="170" y="680" as="sourcePoint" />
            <mxPoint x="50" y="680" as="targetPoint" />
          </mxGeometry>
        </mxCell>
        <mxCell id="u-dDMK2dxkakxFX6j91s-24" value="25 GB" style="edgeLabel;html=1;align=center;verticalAlign=middle;resizable=0;points=[];" parent="u-dDMK2dxkakxFX6j91s-23" vertex="1" connectable="0">
          <mxGeometry x="0.2667" y="-1" relative="1" as="geometry">
            <mxPoint x="18" y="11" as="offset" />
          </mxGeometry>
        </mxCell>
        <mxCell id="u-dDMK2dxkakxFX6j91s-25" value="" style="endArrow=block;startArrow=block;html=1;rounded=1;fillColor=#fa6800;strokeColor=#C73500;strokeWidth=3;startFill=0;endFill=0;elbow=vertical;flowAnimation=0;entryX=0.866;entryY=0.972;entryDx=0;entryDy=0;entryPerimeter=0;startSize=11;endSize=10;sourcePerimeterSpacing=0;dashed=1;dashPattern=1 1;" parent="1" edge="1">
          <mxGeometry width="50" height="50" relative="1" as="geometry">
            <mxPoint x="170" y="720" as="sourcePoint" />
            <mxPoint x="50" y="720" as="targetPoint" />
          </mxGeometry>
        </mxCell>
        <mxCell id="u-dDMK2dxkakxFX6j91s-26" value="10Gb Eth" style="edgeLabel;html=1;align=center;verticalAlign=middle;resizable=0;points=[];" parent="u-dDMK2dxkakxFX6j91s-25" vertex="1" connectable="0">
          <mxGeometry x="0.4667" y="-3" relative="1" as="geometry">
            <mxPoint x="30" y="13" as="offset" />
          </mxGeometry>
        </mxCell>
        <mxCell id="u-dDMK2dxkakxFX6j91s-27" value="" style="endArrow=none;startArrow=none;html=1;rounded=1;fillColor=#d0cee2;strokeColor=#56517e;strokeWidth=3;startFill=0;endFill=0;elbow=vertical;flowAnimation=0;entryX=0.866;entryY=0.972;entryDx=0;entryDy=0;entryPerimeter=0;startSize=11;endSize=10;sourcePerimeterSpacing=0;dashed=1;dashPattern=1 1;" parent="1" edge="1">
          <mxGeometry width="50" height="50" relative="1" as="geometry">
            <mxPoint x="170" y="760" as="sourcePoint" />
            <mxPoint x="50" y="760" as="targetPoint" />
          </mxGeometry>
        </mxCell>
        <mxCell id="u-dDMK2dxkakxFX6j91s-28" value="MGMT" style="edgeLabel;html=1;align=center;verticalAlign=middle;resizable=0;points=[];" parent="u-dDMK2dxkakxFX6j91s-27" vertex="1" connectable="0">
          <mxGeometry x="0.4667" y="-3" relative="1" as="geometry">
            <mxPoint x="30" y="13" as="offset" />
          </mxGeometry>
        </mxCell>
        <mxCell id="u-dDMK2dxkakxFX6j91s-29" value="" style="endArrow=none;startArrow=none;html=1;rounded=1;fillColor=#d0cee2;strokeColor=#56517e;strokeWidth=3;startFill=0;endFill=0;elbow=vertical;flowAnimation=0;entryX=1;entryY=0.5;entryDx=0;entryDy=0;entryPerimeter=0;startSize=11;endSize=10;sourcePerimeterSpacing=0;dashed=1;dashPattern=1 1;edgeStyle=orthogonalEdgeStyle;exitX=0.999;exitY=0.602;exitDx=0;exitDy=0;exitPerimeter=0;" parent="1" source="u-dDMK2dxkakxFX6j91s-5" target="u-dDMK2dxkakxFX6j91s-7" edge="1">
          <mxGeometry width="50" height="50" relative="1" as="geometry">
            <mxPoint x="835" y="714" as="sourcePoint" />
            <mxPoint x="690" y="440" as="targetPoint" />
            <Array as="points">
              <mxPoint x="770" y="170" />
              <mxPoint x="770" y="510" />
            </Array>
          </mxGeometry>
        </mxCell>
        <mxCell id="u-dDMK2dxkakxFX6j91s-30" value="" style="endArrow=none;startArrow=none;html=1;rounded=1;fillColor=#d0cee2;strokeColor=#56517e;strokeWidth=3;startFill=0;endFill=0;elbow=vertical;flowAnimation=0;entryX=0.998;entryY=0.405;entryDx=0;entryDy=0;entryPerimeter=0;startSize=11;endSize=10;sourcePerimeterSpacing=0;dashed=1;dashPattern=1 1;edgeStyle=orthogonalEdgeStyle;exitX=1;exitY=0.5;exitDx=0;exitDy=0;exitPerimeter=0;" parent="1" source="u-dDMK2dxkakxFX6j91s-9" target="u-dDMK2dxkakxFX6j91s-5" edge="1">
          <mxGeometry width="50" height="50" relative="1" as="geometry">
            <mxPoint x="760" y="530" as="sourcePoint" />
            <mxPoint x="905" y="873" as="targetPoint" />
            <Array as="points">
              <mxPoint x="790" y="570" />
              <mxPoint x="790" y="160" />
              <mxPoint x="596" y="160" />
            </Array>
          </mxGeometry>
        </mxCell>
        <mxCell id="u-dDMK2dxkakxFX6j91s-35" value="" style="endArrow=block;startArrow=block;html=1;rounded=1;fillColor=#fa6800;strokeColor=#C73500;strokeWidth=3;startFill=0;endFill=0;elbow=vertical;flowAnimation=0;startSize=11;endSize=10;sourcePerimeterSpacing=0;dashed=1;dashPattern=1 1;exitX=0.015;exitY=0.985;exitDx=0;exitDy=0;exitPerimeter=0;edgeStyle=orthogonalEdgeStyle;entryX=0.622;entryY=0.991;entryDx=0;entryDy=0;entryPerimeter=0;" parent="1" source="u-dDMK2dxkakxFX6j91s-9" target="u-dDMK2dxkakxFX6j91s-5" edge="1">
          <mxGeometry width="50" height="50" relative="1" as="geometry">
            <mxPoint x="610" y="700" as="sourcePoint" />
            <mxPoint x="420" y="600" as="targetPoint" />
            <Array as="points">
              <mxPoint x="394" y="599" />
            </Array>
          </mxGeometry>
        </mxCell>
        <mxCell id="u-dDMK2dxkakxFX6j91s-37" value="" style="endArrow=block;startArrow=block;html=1;rounded=1;fillColor=#fa6800;strokeColor=#C73500;strokeWidth=3;startFill=0;endFill=0;elbow=vertical;flowAnimation=0;startSize=11;endSize=10;sourcePerimeterSpacing=0;dashed=1;dashPattern=1 1;edgeStyle=orthogonalEdgeStyle;exitX=-0.004;exitY=0.883;exitDx=0;exitDy=0;exitPerimeter=0;jumpStyle=arc;jumpSize=8;entryX=0.658;entryY=0.981;entryDx=0;entryDy=0;entryPerimeter=0;" parent="1" source="u-dDMK2dxkakxFX6j91s-7" edge="1" target="u-dDMK2dxkakxFX6j91s-5">
          <mxGeometry width="50" height="50" relative="1" as="geometry">
            <mxPoint x="620" y="690" as="sourcePoint" />
            <mxPoint x="390" y="190" as="targetPoint" />
            <Array as="points">
              <mxPoint x="413" y="533" />
            </Array>
          </mxGeometry>
        </mxCell>
        <mxCell id="u-dDMK2dxkakxFX6j91s-39" value="" style="endArrow=block;startArrow=block;html=1;rounded=1;fillColor=#fa6800;strokeColor=#C73500;strokeWidth=3;startFill=0;endFill=0;elbow=vertical;flowAnimation=0;startSize=11;endSize=10;sourcePerimeterSpacing=0;dashed=1;dashPattern=1 1;edgeStyle=orthogonalEdgeStyle;exitX=-0.004;exitY=0.883;exitDx=0;exitDy=0;exitPerimeter=0;jumpStyle=arc;jumpSize=8;entryX=0.69;entryY=1.004;entryDx=0;entryDy=0;entryPerimeter=0;" parent="1" target="u-dDMK2dxkakxFX6j91s-5" edge="1">
          <mxGeometry width="50" height="50" relative="1" as="geometry">
            <mxPoint x="580" y="476.5" as="sourcePoint" />
            <mxPoint x="420" y="210" as="targetPoint" />
            <Array as="points">
              <mxPoint x="430" y="476" />
              <mxPoint x="430" y="210" />
              <mxPoint x="430" y="210" />
            </Array>
          </mxGeometry>
        </mxCell>
        <mxCell id="u-dDMK2dxkakxFX6j91s-44" value="Top of Rack Switch" style="text;html=1;align=center;verticalAlign=middle;whiteSpace=wrap;rounded=0;fillColor=default;strokeColor=default;" parent="1" vertex="1">
          <mxGeometry x="285" y="50" width="140" height="30" as="geometry" />
        </mxCell>
        <mxCell id="u-dDMK2dxkakxFX6j91s-45" value="Rubrik Brik" style="text;html=1;align=center;verticalAlign=middle;whiteSpace=wrap;rounded=0;fillColor=default;strokeColor=default;" parent="1" vertex="1">
          <mxGeometry x="81" y="510" width="140" height="30" as="geometry" />
        </mxCell>
        <mxCell id="u-dDMK2dxkakxFX6j91s-46" value="" style="endArrow=none;startArrow=none;html=1;rounded=1;fillColor=#d0cee2;strokeColor=#56517e;strokeWidth=3;startFill=0;endFill=0;elbow=vertical;flowAnimation=0;entryX=0.131;entryY=0.938;entryDx=0;entryDy=0;entryPerimeter=0;startSize=11;endSize=10;sourcePerimeterSpacing=0;dashed=1;dashPattern=1 1;edgeStyle=orthogonalEdgeStyle;exitX=0.37;exitY=-0.052;exitDx=0;exitDy=0;exitPerimeter=0;" parent="1" source="u-dDMK2dxkakxFX6j91s-4" target="u-dDMK2dxkakxFX6j91s-5" edge="1">
          <mxGeometry width="50" height="50" relative="1" as="geometry">
            <mxPoint x="266" y="459" as="sourcePoint" />
            <mxPoint x="120" y="190" as="targetPoint" />
            <Array as="points">
              <mxPoint x="130" y="190" />
              <mxPoint x="130" y="190" />
            </Array>
          </mxGeometry>
        </mxCell>
        <mxCell id="u-dDMK2dxkakxFX6j91s-47" value="MGMT" style="text;html=1;align=center;verticalAlign=middle;whiteSpace=wrap;rounded=0;fillColor=default;strokeColor=default;" parent="1" vertex="1">
          <mxGeometry x="100" y="300" width="60" height="30" as="geometry" />
        </mxCell>
        <mxCell id="u-dDMK2dxkakxFX6j91s-48" value="Cisco Compute" style="text;html=1;align=center;verticalAlign=middle;whiteSpace=wrap;rounded=0;fillColor=default;strokeColor=default;" parent="1" vertex="1">
          <mxGeometry x="591" y="610" width="140" height="30" as="geometry" />
        </mxCell>
        <mxCell id="ay5W3y9Yk8GJj0EnloQ6-1" value="" style="endArrow=open;startArrow=open;html=1;rounded=1;fillColor=#1ba1e2;strokeColor=#006EAF;strokeWidth=2;startFill=0;endFill=0;elbow=vertical;edgeStyle=orthogonalEdgeStyle;flowAnimation=0;curved=0;startSize=11;endSize=10;sourcePerimeterSpacing=0;exitX=0.702;exitY=-0.038;exitDx=0;exitDy=0;exitPerimeter=0;" edge="1" parent="1" source="u-dDMK2dxkakxFX6j91s-4">
          <mxGeometry width="50" height="50" relative="1" as="geometry">
            <mxPoint x="180" y="430" as="sourcePoint" />
            <mxPoint x="230" y="190" as="targetPoint" />
            <Array as="points">
              <mxPoint x="184" y="430" />
              <mxPoint x="184" y="430" />
              <mxPoint x="184" y="310" />
              <mxPoint x="230" y="310" />
            </Array>
          </mxGeometry>
        </mxCell>
        <mxCell id="ay5W3y9Yk8GJj0EnloQ6-2" value="" style="endArrow=open;startArrow=open;html=1;rounded=1;fillColor=#1ba1e2;strokeColor=#006EAF;strokeWidth=2;startFill=0;endFill=0;elbow=vertical;entryX=0.286;entryY=0.995;entryDx=0;entryDy=0;entryPerimeter=0;edgeStyle=orthogonalEdgeStyle;flowAnimation=0;curved=0;startSize=11;endSize=10;sourcePerimeterSpacing=0;exitX=0.613;exitY=-0.024;exitDx=0;exitDy=0;exitPerimeter=0;" edge="1" parent="1" source="u-dDMK2dxkakxFX6j91s-4" target="u-dDMK2dxkakxFX6j91s-5">
          <mxGeometry width="50" height="50" relative="1" as="geometry">
            <mxPoint x="160" y="429" as="sourcePoint" />
            <mxPoint x="210" y="190" as="targetPoint" />
            <Array as="points">
              <mxPoint x="169" y="430" />
              <mxPoint x="170" y="430" />
              <mxPoint x="170" y="299" />
              <mxPoint x="214" y="299" />
              <mxPoint x="214" y="200" />
              <mxPoint x="214" y="200" />
            </Array>
          </mxGeometry>
        </mxCell>
        <mxCell id="u-dDMK2dxkakxFX6j91s-32" value="25GB Fiber" style="text;html=1;align=center;verticalAlign=middle;whiteSpace=wrap;rounded=0;fillColor=default;strokeColor=default;" parent="1" vertex="1">
          <mxGeometry x="150" y="360" width="60" height="30" as="geometry" />
        </mxCell>
        <mxCell id="ay5W3y9Yk8GJj0EnloQ6-3" value="Cluster A" style="text;html=1;align=center;verticalAlign=middle;whiteSpace=wrap;rounded=0;rotation=0;fillColor=default;strokeColor=default;" vertex="1" parent="1">
          <mxGeometry x="620" y="370" width="70" height="40" as="geometry" />
        </mxCell>
        <mxCell id="ay5W3y9Yk8GJj0EnloQ6-4" value="" style="sketch=0;points=[[0.015,0.015,0],[0.985,0.015,0],[0.985,0.985,0],[0.015,0.985,0],[0.25,0,0],[0.5,0,0],[0.75,0,0],[1,0.25,0],[1,0.5,0],[1,0.75,0],[0.75,1,0],[0.5,1,0],[0.25,1,0],[0,0.75,0],[0,0.5,0],[0,0.25,0]];verticalLabelPosition=bottom;html=1;verticalAlign=top;aspect=fixed;align=center;pointerEvents=1;shape=mxgraph.cisco19.rect;prIcon=ucs_c_series_server;fillColor=#FAFAFA;strokeColor=#005073;" vertex="1" parent="1">
          <mxGeometry x="580" y="840" width="162" height="60" as="geometry" />
        </mxCell>
        <mxCell id="ay5W3y9Yk8GJj0EnloQ6-5" value="" style="sketch=0;points=[[0.015,0.015,0],[0.985,0.015,0],[0.985,0.985,0],[0.015,0.985,0],[0.25,0,0],[0.5,0,0],[0.75,0,0],[1,0.25,0],[1,0.5,0],[1,0.75,0],[0.75,1,0],[0.5,1,0],[0.25,1,0],[0,0.75,0],[0,0.5,0],[0,0.25,0]];verticalLabelPosition=bottom;html=1;verticalAlign=top;aspect=fixed;align=center;pointerEvents=1;shape=mxgraph.cisco19.rect;prIcon=ucs_c_series_server;fillColor=#FAFAFA;strokeColor=#005073;" vertex="1" parent="1">
          <mxGeometry x="580" y="780" width="162" height="60" as="geometry" />
        </mxCell>
        <mxCell id="ay5W3y9Yk8GJj0EnloQ6-6" value="" style="sketch=0;points=[[0.015,0.015,0],[0.985,0.015,0],[0.985,0.985,0],[0.015,0.985,0],[0.25,0,0],[0.5,0,0],[0.75,0,0],[1,0.25,0],[1,0.5,0],[1,0.75,0],[0.75,1,0],[0.5,1,0],[0.25,1,0],[0,0.75,0],[0,0.5,0],[0,0.25,0]];verticalLabelPosition=bottom;html=1;verticalAlign=top;aspect=fixed;align=center;pointerEvents=1;shape=mxgraph.cisco19.rect;prIcon=ucs_c_series_server;fillColor=#FAFAFA;strokeColor=#005073;" vertex="1" parent="1">
          <mxGeometry x="580" y="900" width="162" height="60" as="geometry" />
        </mxCell>
        <mxCell id="ay5W3y9Yk8GJj0EnloQ6-8" value="MGMT" style="text;html=1;align=center;verticalAlign=middle;whiteSpace=wrap;rounded=0;fillColor=default;strokeColor=default;" vertex="1" parent="1">
          <mxGeometry x="740" y="650" width="60" height="30" as="geometry" />
        </mxCell>
        <mxCell id="ay5W3y9Yk8GJj0EnloQ6-10" value="Cisco Compute" style="text;html=1;align=center;verticalAlign=middle;whiteSpace=wrap;rounded=0;fillColor=default;strokeColor=default;" vertex="1" parent="1">
          <mxGeometry x="591" y="970" width="140" height="30" as="geometry" />
        </mxCell>
        <mxCell id="ay5W3y9Yk8GJj0EnloQ6-11" value="Cluster B" style="text;html=1;align=center;verticalAlign=middle;whiteSpace=wrap;rounded=0;rotation=0;fillColor=default;strokeColor=default;" vertex="1" parent="1">
          <mxGeometry x="620" y="730" width="70" height="40" as="geometry" />
        </mxCell>
        <mxCell id="ay5W3y9Yk8GJj0EnloQ6-15" value="" style="endArrow=block;startArrow=block;html=1;rounded=1;fillColor=#fa6800;strokeColor=#C73500;strokeWidth=3;startFill=0;endFill=0;elbow=vertical;flowAnimation=0;startSize=11;endSize=10;sourcePerimeterSpacing=0;dashed=1;dashPattern=1 1;exitX=0.015;exitY=0.985;exitDx=0;exitDy=0;exitPerimeter=0;edgeStyle=orthogonalEdgeStyle;entryX=0.503;entryY=1.031;entryDx=0;entryDy=0;entryPerimeter=0;" edge="1" parent="1" target="u-dDMK2dxkakxFX6j91s-5">
          <mxGeometry width="50" height="50" relative="1" as="geometry">
            <mxPoint x="580" y="942" as="sourcePoint" />
            <mxPoint x="348" y="534" as="targetPoint" />
            <Array as="points">
              <mxPoint x="330" y="942" />
            </Array>
          </mxGeometry>
        </mxCell>
        <mxCell id="ay5W3y9Yk8GJj0EnloQ6-16" value="" style="endArrow=block;startArrow=block;html=1;rounded=1;fillColor=#fa6800;strokeColor=#C73500;strokeWidth=3;startFill=0;endFill=0;elbow=vertical;flowAnimation=0;startSize=11;endSize=10;sourcePerimeterSpacing=0;dashed=1;dashPattern=1 1;edgeStyle=orthogonalEdgeStyle;exitX=-0.004;exitY=0.883;exitDx=0;exitDy=0;exitPerimeter=0;jumpStyle=arc;jumpSize=8;entryX=0.539;entryY=1.053;entryDx=0;entryDy=0;entryPerimeter=0;" edge="1" parent="1" target="u-dDMK2dxkakxFX6j91s-5">
          <mxGeometry width="50" height="50" relative="1" as="geometry">
            <mxPoint x="577" y="876" as="sourcePoint" />
            <mxPoint x="290" y="260" as="targetPoint" />
            <Array as="points">
              <mxPoint x="350" y="876" />
              <mxPoint x="350" y="210" />
              <mxPoint x="349" y="210" />
            </Array>
          </mxGeometry>
        </mxCell>
        <mxCell id="ay5W3y9Yk8GJj0EnloQ6-17" value="" style="endArrow=block;startArrow=block;html=1;rounded=1;fillColor=#fa6800;strokeColor=#C73500;strokeWidth=3;startFill=0;endFill=0;elbow=vertical;flowAnimation=0;startSize=11;endSize=10;sourcePerimeterSpacing=0;dashed=1;dashPattern=1 1;edgeStyle=orthogonalEdgeStyle;exitX=-0.004;exitY=0.883;exitDx=0;exitDy=0;exitPerimeter=0;jumpStyle=arc;jumpSize=8;" edge="1" parent="1">
          <mxGeometry width="50" height="50" relative="1" as="geometry">
            <mxPoint x="580" y="818.8" as="sourcePoint" />
            <mxPoint x="370" y="192" as="targetPoint" />
            <Array as="points">
              <mxPoint x="370" y="819" />
            </Array>
          </mxGeometry>
        </mxCell>
        <mxCell id="u-dDMK2dxkakxFX6j91s-43" value="10Gb Eth" style="text;html=1;align=center;verticalAlign=middle;whiteSpace=wrap;rounded=0;fillColor=default;strokeColor=default;" parent="1" vertex="1">
          <mxGeometry x="550" y="255" width="90" height="50" as="geometry" />
        </mxCell>
        <mxCell id="ay5W3y9Yk8GJj0EnloQ6-9" value="10Gb Eth" style="text;html=1;align=center;verticalAlign=middle;whiteSpace=wrap;rounded=0;fillColor=default;strokeColor=default;" vertex="1" parent="1">
          <mxGeometry x="320" y="660" width="100" height="50" as="geometry" />
        </mxCell>
        <mxCell id="u-dDMK2dxkakxFX6j91s-11" value="" style="endArrow=open;startArrow=open;html=1;rounded=1;fillColor=#1ba1e2;strokeColor=#006EAF;strokeWidth=2;startFill=0;endFill=0;elbow=vertical;edgeStyle=orthogonalEdgeStyle;flowAnimation=0;curved=0;exitX=0;exitY=0.5;exitDx=0;exitDy=0;exitPerimeter=0;entryX=0.866;entryY=0.972;entryDx=0;entryDy=0;entryPerimeter=0;startSize=11;endSize=10;sourcePerimeterSpacing=0;" parent="1" source="u-dDMK2dxkakxFX6j91s-8" target="u-dDMK2dxkakxFX6j91s-5" edge="1">
          <mxGeometry width="50" height="50" relative="1" as="geometry">
            <mxPoint x="300" y="565" as="sourcePoint" />
            <mxPoint x="370" y="210" as="targetPoint" />
          </mxGeometry>
        </mxCell>
        <mxCell id="u-dDMK2dxkakxFX6j91s-12" value="" style="endArrow=open;startArrow=open;html=1;rounded=1;fillColor=#1ba1e2;strokeColor=#006EAF;strokeWidth=2;startFill=0;endFill=0;elbow=vertical;edgeStyle=orthogonalEdgeStyle;flowAnimation=0;curved=0;exitX=0;exitY=0.5;exitDx=0;exitDy=0;exitPerimeter=0;entryX=0.82;entryY=1;entryDx=0;entryDy=0;entryPerimeter=0;startSize=11;endSize=10;sourcePerimeterSpacing=0;jumpStyle=arc;" parent="1" source="u-dDMK2dxkakxFX6j91s-7" target="u-dDMK2dxkakxFX6j91s-5" edge="1">
          <mxGeometry width="50" height="50" relative="1" as="geometry">
            <mxPoint x="475" y="621" as="sourcePoint" />
            <mxPoint x="420" y="360" as="targetPoint" />
          </mxGeometry>
        </mxCell>
        <mxCell id="u-dDMK2dxkakxFX6j91s-13" value="" style="endArrow=open;startArrow=open;html=1;rounded=1;fillColor=#1ba1e2;strokeColor=#006EAF;strokeWidth=2;startFill=0;endFill=0;elbow=vertical;edgeStyle=orthogonalEdgeStyle;flowAnimation=0;curved=0;exitX=0;exitY=0.5;exitDx=0;exitDy=0;exitPerimeter=0;entryX=0.766;entryY=0.948;entryDx=0;entryDy=0;entryPerimeter=0;startSize=11;endSize=10;sourcePerimeterSpacing=0;jumpStyle=arc;" parent="1" source="u-dDMK2dxkakxFX6j91s-9" target="u-dDMK2dxkakxFX6j91s-5" edge="1">
          <mxGeometry width="50" height="50" relative="1" as="geometry">
            <mxPoint x="530" y="850" as="sourcePoint" />
            <mxPoint x="470" y="340" as="targetPoint" />
          </mxGeometry>
        </mxCell>
        <mxCell id="ay5W3y9Yk8GJj0EnloQ6-12" value="" style="endArrow=open;startArrow=open;html=1;rounded=1;fillColor=#1ba1e2;strokeColor=#006EAF;strokeWidth=2;startFill=0;endFill=0;elbow=vertical;edgeStyle=orthogonalEdgeStyle;flowAnimation=0;curved=0;exitX=0;exitY=0.5;exitDx=0;exitDy=0;exitPerimeter=0;entryX=0.843;entryY=0.986;entryDx=0;entryDy=0;entryPerimeter=0;startSize=11;endSize=10;sourcePerimeterSpacing=0;jumpStyle=arc;" edge="1" parent="1" target="u-dDMK2dxkakxFX6j91s-5">
          <mxGeometry width="50" height="50" relative="1" as="geometry">
            <mxPoint x="578" y="793" as="sourcePoint" />
            <mxPoint x="523" y="532" as="targetPoint" />
            <Array as="points">
              <mxPoint x="512" y="793" />
              <mxPoint x="512" y="492" />
            </Array>
          </mxGeometry>
        </mxCell>
        <mxCell id="ay5W3y9Yk8GJj0EnloQ6-13" value="" style="endArrow=open;startArrow=open;html=1;rounded=1;fillColor=#1ba1e2;strokeColor=#006EAF;strokeWidth=2;startFill=0;endFill=0;elbow=vertical;edgeStyle=orthogonalEdgeStyle;flowAnimation=0;curved=0;exitX=0;exitY=0.5;exitDx=0;exitDy=0;exitPerimeter=0;entryX=0.79;entryY=1.031;entryDx=0;entryDy=0;entryPerimeter=0;startSize=11;endSize=10;sourcePerimeterSpacing=0;jumpStyle=arc;" edge="1" parent="1" target="u-dDMK2dxkakxFX6j91s-5">
          <mxGeometry width="50" height="50" relative="1" as="geometry">
            <mxPoint x="578" y="853" as="sourcePoint" />
            <mxPoint x="498" y="533" as="targetPoint" />
            <Array as="points">
              <mxPoint x="484" y="853" />
            </Array>
          </mxGeometry>
        </mxCell>
        <mxCell id="ay5W3y9Yk8GJj0EnloQ6-14" value="" style="endArrow=open;startArrow=open;html=1;rounded=1;fillColor=#1ba1e2;strokeColor=#006EAF;strokeWidth=2;startFill=0;endFill=0;elbow=vertical;edgeStyle=orthogonalEdgeStyle;flowAnimation=0;curved=0;exitX=0;exitY=0.5;exitDx=0;exitDy=0;exitPerimeter=0;entryX=0.745;entryY=1.009;entryDx=0;entryDy=0;entryPerimeter=0;startSize=11;endSize=10;sourcePerimeterSpacing=0;jumpStyle=arc;" edge="1" parent="1" target="u-dDMK2dxkakxFX6j91s-5">
          <mxGeometry width="50" height="50" relative="1" as="geometry">
            <mxPoint x="578" y="913" as="sourcePoint" />
            <mxPoint x="469" y="530" as="targetPoint" />
            <Array as="points">
              <mxPoint x="460" y="913" />
              <mxPoint x="460" y="191" />
            </Array>
          </mxGeometry>
        </mxCell>
        <mxCell id="ay5W3y9Yk8GJj0EnloQ6-7" value="25GB Fiber" style="text;html=1;align=center;verticalAlign=middle;whiteSpace=wrap;rounded=0;rotation=0;fillColor=default;strokeColor=default;" vertex="1" parent="1">
          <mxGeometry x="450" y="665" width="70" height="40" as="geometry" />
        </mxCell>
        <mxCell id="u-dDMK2dxkakxFX6j91s-33" value="25GB Fiber" style="text;html=1;align=center;verticalAlign=middle;whiteSpace=wrap;rounded=0;rotation=0;fillColor=default;strokeColor=default;" parent="1" vertex="1">
          <mxGeometry x="450" y="305" width="83" height="40" as="geometry" />
        </mxCell>
        <mxCell id="BGFbpP8tOCRk9GAPm7Wv-1" value="" style="shape=mxgraph.rack.cisco.cisco_catalyst_4948_switch;html=1;labelPosition=right;align=left;spacingLeft=15;dashed=0;shadow=0;fillColor=#ffffff;" vertex="1" parent="1">
          <mxGeometry x="60" y="90" width="536.74" height="50" as="geometry" />
        </mxCell>
        <mxCell id="BGFbpP8tOCRk9GAPm7Wv-2" value="OT Dual 3 Node Cluster" style="text;html=1;align=center;verticalAlign=middle;whiteSpace=wrap;rounded=0;fillColor=default;strokeColor=default;" vertex="1" parent="1">
          <mxGeometry x="320" y="1040" width="140" height="30" as="geometry" />
        </mxCell>
        <mxCell id="BGFbpP8tOCRk9GAPm7Wv-7" value="" style="endArrow=none;startArrow=none;html=1;rounded=1;fillColor=#d0cee2;strokeColor=#56517e;strokeWidth=3;startFill=0;endFill=0;elbow=vertical;flowAnimation=0;entryX=1.001;entryY=0.28;entryDx=0;entryDy=0;entryPerimeter=0;startSize=11;endSize=10;sourcePerimeterSpacing=0;dashed=1;dashPattern=1 1;edgeStyle=orthogonalEdgeStyle;exitX=1;exitY=0.5;exitDx=0;exitDy=0;exitPerimeter=0;" edge="1" parent="1" source="ay5W3y9Yk8GJj0EnloQ6-6" target="BGFbpP8tOCRk9GAPm7Wv-1">
          <mxGeometry width="50" height="50" relative="1" as="geometry">
            <mxPoint x="1466" y="1019" as="sourcePoint" />
            <mxPoint x="1320" y="750" as="targetPoint" />
            <Array as="points">
              <mxPoint x="820" y="930" />
              <mxPoint x="820" y="104" />
            </Array>
          </mxGeometry>
        </mxCell>
        <mxCell id="BGFbpP8tOCRk9GAPm7Wv-8" value="" style="endArrow=none;startArrow=none;html=1;rounded=1;fillColor=#d0cee2;strokeColor=#56517e;strokeWidth=3;startFill=0;endFill=0;elbow=vertical;flowAnimation=0;entryX=1;entryY=0.5;entryDx=0;entryDy=0;entryPerimeter=0;startSize=11;endSize=10;sourcePerimeterSpacing=0;dashed=1;dashPattern=1 1;edgeStyle=orthogonalEdgeStyle;exitX=0.999;exitY=0.495;exitDx=0;exitDy=0;exitPerimeter=0;" edge="1" parent="1" source="BGFbpP8tOCRk9GAPm7Wv-1" target="ay5W3y9Yk8GJj0EnloQ6-4">
          <mxGeometry width="50" height="50" relative="1" as="geometry">
            <mxPoint x="1140" y="890" as="sourcePoint" />
            <mxPoint x="1276" y="1230" as="targetPoint" />
            <Array as="points">
              <mxPoint x="810" y="115" />
              <mxPoint x="810" y="870" />
            </Array>
          </mxGeometry>
        </mxCell>
        <mxCell id="BGFbpP8tOCRk9GAPm7Wv-9" value="" style="endArrow=none;startArrow=none;html=1;rounded=1;fillColor=#d0cee2;strokeColor=#56517e;strokeWidth=3;startFill=0;endFill=0;elbow=vertical;flowAnimation=0;entryX=0.993;entryY=0.895;entryDx=0;entryDy=0;entryPerimeter=0;startSize=11;endSize=10;sourcePerimeterSpacing=0;dashed=1;dashPattern=1 1;edgeStyle=orthogonalEdgeStyle;exitX=1;exitY=0.5;exitDx=0;exitDy=0;exitPerimeter=0;" edge="1" parent="1" source="ay5W3y9Yk8GJj0EnloQ6-5" target="BGFbpP8tOCRk9GAPm7Wv-1">
          <mxGeometry width="50" height="50" relative="1" as="geometry">
            <mxPoint x="896" y="1210" as="sourcePoint" />
            <mxPoint x="750" y="800" as="targetPoint" />
            <Array as="points">
              <mxPoint x="800" y="810" />
              <mxPoint x="800" y="130" />
              <mxPoint x="595" y="130" />
              <mxPoint x="595" y="135" />
            </Array>
          </mxGeometry>
        </mxCell>
        <mxCell id="u-dDMK2dxkakxFX6j91s-34" value="MGMT" style="text;html=1;align=center;verticalAlign=middle;whiteSpace=wrap;rounded=0;fillColor=default;strokeColor=default;" parent="1" vertex="1">
          <mxGeometry x="740" y="290" width="90" height="30" as="geometry" />
        </mxCell>
      </root>
    </mxGraphModel>
  </diagram>
  <diagram id="BWozl4RXCIxYTYR7oQvq" name="3 Node Cluster">
    <mxGraphModel dx="2388" dy="853" grid="1" gridSize="10" guides="1" tooltips="1" connect="1" arrows="1" fold="1" page="1" pageScale="1" pageWidth="850" pageHeight="1100" math="0" shadow="0">
      <root>
        <mxCell id="0" />
        <mxCell id="1" parent="0" />
        <mxCell id="-Kn8Bb6TqAL43-KgZQqI-1" value="" style="shape=mxgraph.rack.cisco.cisco_catalyst_4948_switch;html=1;labelPosition=right;align=left;spacingLeft=15;dashed=0;shadow=0;fillColor=#ffffff;" vertex="1" parent="1">
          <mxGeometry x="50" y="70" width="536.74" height="50" as="geometry" />
        </mxCell>
        <mxCell id="-Kn8Bb6TqAL43-KgZQqI-2" value="" style="sketch=0;points=[[0.015,0.015,0],[0.985,0.015,0],[0.985,0.985,0],[0.015,0.985,0],[0.25,0,0],[0.5,0,0],[0.75,0,0],[1,0.25,0],[1,0.5,0],[1,0.75,0],[0.75,1,0],[0.5,1,0],[0.25,1,0],[0,0.75,0],[0,0.5,0],[0,0.25,0]];verticalLabelPosition=bottom;html=1;verticalAlign=top;aspect=fixed;align=center;pointerEvents=1;shape=mxgraph.cisco19.rect;prIcon=ucs_c_series_server;fillColor=#FAFAFA;strokeColor=#005073;" vertex="1" parent="1">
          <mxGeometry x="570" y="410" width="162" height="60" as="geometry" />
        </mxCell>
        <mxCell id="-Kn8Bb6TqAL43-KgZQqI-3" value="" style="verticalLabelPosition=bottom;html=1;verticalAlign=top;align=center;strokeColor=none;fillColor=#00BEF2;shape=mxgraph.azure.server;" vertex="1" parent="1">
          <mxGeometry x="60" y="370" width="162" height="60" as="geometry" />
        </mxCell>
        <mxCell id="-Kn8Bb6TqAL43-KgZQqI-4" value="" style="sketch=0;points=[[0.015,0.015,0],[0.985,0.015,0],[0.985,0.985,0],[0.015,0.985,0],[0.25,0,0],[0.5,0,0],[0.75,0,0],[1,0.25,0],[1,0.5,0],[1,0.75,0],[0.75,1,0],[0.5,1,0],[0.25,1,0],[0,0.75,0],[0,0.5,0],[0,0.25,0]];verticalLabelPosition=bottom;html=1;verticalAlign=top;aspect=fixed;align=center;pointerEvents=1;shape=mxgraph.cisco19.rect;prIcon=ucs_c_series_server;fillColor=#FAFAFA;strokeColor=#005073;" vertex="1" parent="1">
          <mxGeometry x="570" y="350" width="162" height="60" as="geometry" />
        </mxCell>
        <mxCell id="-Kn8Bb6TqAL43-KgZQqI-5" value="" style="sketch=0;points=[[0.015,0.015,0],[0.985,0.015,0],[0.985,0.985,0],[0.015,0.985,0],[0.25,0,0],[0.5,0,0],[0.75,0,0],[1,0.25,0],[1,0.5,0],[1,0.75,0],[0.75,1,0],[0.5,1,0],[0.25,1,0],[0,0.75,0],[0,0.5,0],[0,0.25,0]];verticalLabelPosition=bottom;html=1;verticalAlign=top;aspect=fixed;align=center;pointerEvents=1;shape=mxgraph.cisco19.rect;prIcon=ucs_c_series_server;fillColor=#FAFAFA;strokeColor=#005073;" vertex="1" parent="1">
          <mxGeometry x="570" y="470" width="162" height="60" as="geometry" />
        </mxCell>
        <mxCell id="-Kn8Bb6TqAL43-KgZQqI-7" value="" style="endArrow=open;startArrow=open;html=1;rounded=1;fillColor=#1ba1e2;strokeColor=#006EAF;strokeWidth=2;startFill=0;endFill=0;elbow=vertical;edgeStyle=orthogonalEdgeStyle;flowAnimation=0;curved=0;exitX=0;exitY=0.5;exitDx=0;exitDy=0;exitPerimeter=0;entryX=0.985;entryY=0.03;entryDx=0;entryDy=0;entryPerimeter=0;startSize=11;endSize=10;sourcePerimeterSpacing=0;" edge="1" parent="1" source="-Kn8Bb6TqAL43-KgZQqI-4" target="-Kn8Bb6TqAL43-KgZQqI-3">
          <mxGeometry width="50" height="50" relative="1" as="geometry">
            <mxPoint x="290" y="495" as="sourcePoint" />
            <mxPoint x="360" y="140" as="targetPoint" />
            <Array as="points">
              <mxPoint x="280" y="380" />
              <mxPoint x="280" y="372" />
            </Array>
          </mxGeometry>
        </mxCell>
        <mxCell id="-Kn8Bb6TqAL43-KgZQqI-8" value="" style="endArrow=open;startArrow=open;html=1;rounded=1;fillColor=#1ba1e2;strokeColor=#006EAF;strokeWidth=2;startFill=0;endFill=0;elbow=vertical;edgeStyle=orthogonalEdgeStyle;flowAnimation=0;curved=0;exitX=0;exitY=0.5;exitDx=0;exitDy=0;exitPerimeter=0;entryX=1;entryY=0.5;entryDx=0;entryDy=0;entryPerimeter=0;startSize=11;endSize=10;sourcePerimeterSpacing=0;" edge="1" parent="1" source="-Kn8Bb6TqAL43-KgZQqI-2" target="-Kn8Bb6TqAL43-KgZQqI-3">
          <mxGeometry width="50" height="50" relative="1" as="geometry">
            <mxPoint x="465" y="551" as="sourcePoint" />
            <mxPoint x="410" y="290" as="targetPoint" />
            <Array as="points">
              <mxPoint x="260" y="440" />
              <mxPoint x="260" y="400" />
            </Array>
          </mxGeometry>
        </mxCell>
        <mxCell id="-Kn8Bb6TqAL43-KgZQqI-9" value="" style="endArrow=open;startArrow=open;html=1;rounded=1;fillColor=#1ba1e2;strokeColor=#006EAF;strokeWidth=2;startFill=0;endFill=0;elbow=vertical;edgeStyle=orthogonalEdgeStyle;flowAnimation=0;curved=0;exitX=0;exitY=0.5;exitDx=0;exitDy=0;exitPerimeter=0;entryX=0.985;entryY=0.97;entryDx=0;entryDy=0;entryPerimeter=0;startSize=11;endSize=10;sourcePerimeterSpacing=0;" edge="1" parent="1" source="-Kn8Bb6TqAL43-KgZQqI-5" target="-Kn8Bb6TqAL43-KgZQqI-3">
          <mxGeometry width="50" height="50" relative="1" as="geometry">
            <mxPoint x="520" y="780" as="sourcePoint" />
            <mxPoint x="460" y="270" as="targetPoint" />
            <Array as="points">
              <mxPoint x="250" y="500" />
              <mxPoint x="250" y="428" />
              <mxPoint x="240" y="428" />
            </Array>
          </mxGeometry>
        </mxCell>
        <mxCell id="-Kn8Bb6TqAL43-KgZQqI-10" value="" style="endArrow=none;startArrow=none;html=1;rounded=1;fillColor=#d0cee2;strokeColor=#56517e;strokeWidth=3;startFill=0;endFill=0;elbow=vertical;flowAnimation=0;entryX=0.999;entryY=0.816;entryDx=0;entryDy=0;entryPerimeter=0;startSize=11;endSize=10;sourcePerimeterSpacing=0;dashed=1;dashPattern=1 1;edgeStyle=orthogonalEdgeStyle;exitX=1;exitY=0.5;exitDx=0;exitDy=0;exitPerimeter=0;" edge="1" parent="1" source="-Kn8Bb6TqAL43-KgZQqI-4" target="-Kn8Bb6TqAL43-KgZQqI-1">
          <mxGeometry width="50" height="50" relative="1" as="geometry">
            <mxPoint x="750" y="230" as="sourcePoint" />
            <mxPoint x="630" y="230" as="targetPoint" />
          </mxGeometry>
        </mxCell>
        <mxCell id="-Kn8Bb6TqAL43-KgZQqI-11" value="" style="endArrow=open;startArrow=open;html=1;rounded=1;fillColor=#1ba1e2;strokeColor=#006EAF;strokeWidth=2;startFill=0;endFill=0;elbow=vertical;flowAnimation=0;entryX=0.866;entryY=0.972;entryDx=0;entryDy=0;entryPerimeter=0;startSize=11;endSize=10;sourcePerimeterSpacing=0;" edge="1" parent="1">
          <mxGeometry width="50" height="50" relative="1" as="geometry">
            <mxPoint x="160" y="610" as="sourcePoint" />
            <mxPoint x="40" y="610" as="targetPoint" />
          </mxGeometry>
        </mxCell>
        <mxCell id="-Kn8Bb6TqAL43-KgZQqI-12" value="25 GB" style="edgeLabel;html=1;align=center;verticalAlign=middle;resizable=0;points=[];" vertex="1" connectable="0" parent="-Kn8Bb6TqAL43-KgZQqI-11">
          <mxGeometry x="0.2667" y="-1" relative="1" as="geometry">
            <mxPoint x="18" y="11" as="offset" />
          </mxGeometry>
        </mxCell>
        <mxCell id="-Kn8Bb6TqAL43-KgZQqI-13" value="" style="endArrow=block;startArrow=block;html=1;rounded=1;fillColor=#fa6800;strokeColor=#C73500;strokeWidth=3;startFill=0;endFill=0;elbow=vertical;flowAnimation=0;entryX=0.866;entryY=0.972;entryDx=0;entryDy=0;entryPerimeter=0;startSize=11;endSize=10;sourcePerimeterSpacing=0;dashed=1;dashPattern=1 1;" edge="1" parent="1">
          <mxGeometry width="50" height="50" relative="1" as="geometry">
            <mxPoint x="160" y="650" as="sourcePoint" />
            <mxPoint x="40" y="650" as="targetPoint" />
          </mxGeometry>
        </mxCell>
        <mxCell id="-Kn8Bb6TqAL43-KgZQqI-14" value="10Gb Eth" style="edgeLabel;html=1;align=center;verticalAlign=middle;resizable=0;points=[];" vertex="1" connectable="0" parent="-Kn8Bb6TqAL43-KgZQqI-13">
          <mxGeometry x="0.4667" y="-3" relative="1" as="geometry">
            <mxPoint x="30" y="13" as="offset" />
          </mxGeometry>
        </mxCell>
        <mxCell id="-Kn8Bb6TqAL43-KgZQqI-15" value="" style="endArrow=none;startArrow=none;html=1;rounded=1;fillColor=#d0cee2;strokeColor=#56517e;strokeWidth=3;startFill=0;endFill=0;elbow=vertical;flowAnimation=0;entryX=0.866;entryY=0.972;entryDx=0;entryDy=0;entryPerimeter=0;startSize=11;endSize=10;sourcePerimeterSpacing=0;dashed=1;dashPattern=1 1;" edge="1" parent="1">
          <mxGeometry width="50" height="50" relative="1" as="geometry">
            <mxPoint x="160" y="690" as="sourcePoint" />
            <mxPoint x="40" y="690" as="targetPoint" />
          </mxGeometry>
        </mxCell>
        <mxCell id="-Kn8Bb6TqAL43-KgZQqI-16" value="MGMT" style="edgeLabel;html=1;align=center;verticalAlign=middle;resizable=0;points=[];" vertex="1" connectable="0" parent="-Kn8Bb6TqAL43-KgZQqI-15">
          <mxGeometry x="0.4667" y="-3" relative="1" as="geometry">
            <mxPoint x="30" y="13" as="offset" />
          </mxGeometry>
        </mxCell>
        <mxCell id="-Kn8Bb6TqAL43-KgZQqI-17" value="" style="endArrow=none;startArrow=none;html=1;rounded=1;fillColor=#d0cee2;strokeColor=#56517e;strokeWidth=3;startFill=0;endFill=0;elbow=vertical;flowAnimation=0;entryX=1;entryY=0.5;entryDx=0;entryDy=0;entryPerimeter=0;startSize=11;endSize=10;sourcePerimeterSpacing=0;dashed=1;dashPattern=1 1;edgeStyle=orthogonalEdgeStyle;exitX=0.999;exitY=0.602;exitDx=0;exitDy=0;exitPerimeter=0;" edge="1" parent="1" source="-Kn8Bb6TqAL43-KgZQqI-1" target="-Kn8Bb6TqAL43-KgZQqI-2">
          <mxGeometry width="50" height="50" relative="1" as="geometry">
            <mxPoint x="825" y="644" as="sourcePoint" />
            <mxPoint x="680" y="370" as="targetPoint" />
            <Array as="points">
              <mxPoint x="760" y="100" />
              <mxPoint x="760" y="440" />
            </Array>
          </mxGeometry>
        </mxCell>
        <mxCell id="-Kn8Bb6TqAL43-KgZQqI-18" value="" style="endArrow=none;startArrow=none;html=1;rounded=1;fillColor=#d0cee2;strokeColor=#56517e;strokeWidth=3;startFill=0;endFill=0;elbow=vertical;flowAnimation=0;entryX=0.998;entryY=0.405;entryDx=0;entryDy=0;entryPerimeter=0;startSize=11;endSize=10;sourcePerimeterSpacing=0;dashed=1;dashPattern=1 1;edgeStyle=orthogonalEdgeStyle;exitX=1;exitY=0.5;exitDx=0;exitDy=0;exitPerimeter=0;" edge="1" parent="1" source="-Kn8Bb6TqAL43-KgZQqI-5" target="-Kn8Bb6TqAL43-KgZQqI-1">
          <mxGeometry width="50" height="50" relative="1" as="geometry">
            <mxPoint x="750" y="460" as="sourcePoint" />
            <mxPoint x="895" y="803" as="targetPoint" />
            <Array as="points">
              <mxPoint x="780" y="500" />
              <mxPoint x="780" y="90" />
              <mxPoint x="586" y="90" />
            </Array>
          </mxGeometry>
        </mxCell>
        <mxCell id="-Kn8Bb6TqAL43-KgZQqI-20" value="25GB Fiber" style="text;html=1;align=center;verticalAlign=middle;whiteSpace=wrap;rounded=0;rotation=0;fillColor=default;strokeColor=default;" vertex="1" parent="1">
          <mxGeometry x="248.37" y="390" width="70" height="40" as="geometry" />
        </mxCell>
        <mxCell id="-Kn8Bb6TqAL43-KgZQqI-21" value="MGMT" style="text;html=1;align=center;verticalAlign=middle;whiteSpace=wrap;rounded=0;fillColor=default;strokeColor=default;" vertex="1" parent="1">
          <mxGeometry x="730" y="220" width="60" height="30" as="geometry" />
        </mxCell>
        <mxCell id="-Kn8Bb6TqAL43-KgZQqI-22" value="" style="endArrow=block;startArrow=block;html=1;rounded=1;fillColor=#fa6800;strokeColor=#C73500;strokeWidth=3;startFill=0;endFill=0;elbow=vertical;flowAnimation=0;startSize=11;endSize=10;sourcePerimeterSpacing=0;dashed=1;dashPattern=1 1;exitX=0.015;exitY=0.985;exitDx=0;exitDy=0;exitPerimeter=0;edgeStyle=orthogonalEdgeStyle;entryX=0.541;entryY=1.026;entryDx=0;entryDy=0;entryPerimeter=0;" edge="1" parent="1" source="-Kn8Bb6TqAL43-KgZQqI-5" target="-Kn8Bb6TqAL43-KgZQqI-1">
          <mxGeometry width="50" height="50" relative="1" as="geometry">
            <mxPoint x="600" y="630" as="sourcePoint" />
            <mxPoint x="410" y="530" as="targetPoint" />
            <Array as="points">
              <mxPoint x="340" y="529" />
            </Array>
          </mxGeometry>
        </mxCell>
        <mxCell id="-Kn8Bb6TqAL43-KgZQqI-23" value="" style="endArrow=block;startArrow=block;html=1;rounded=1;fillColor=#fa6800;strokeColor=#C73500;strokeWidth=3;startFill=0;endFill=0;elbow=vertical;flowAnimation=0;startSize=11;endSize=10;sourcePerimeterSpacing=0;dashed=1;dashPattern=1 1;edgeStyle=orthogonalEdgeStyle;exitX=-0.004;exitY=0.883;exitDx=0;exitDy=0;exitPerimeter=0;jumpStyle=arc;jumpSize=8;" edge="1" parent="1" source="-Kn8Bb6TqAL43-KgZQqI-2">
          <mxGeometry width="50" height="50" relative="1" as="geometry">
            <mxPoint x="610" y="620" as="sourcePoint" />
            <mxPoint x="380" y="120" as="targetPoint" />
            <Array as="points">
              <mxPoint x="380" y="463" />
              <mxPoint x="380" y="121" />
            </Array>
          </mxGeometry>
        </mxCell>
        <mxCell id="-Kn8Bb6TqAL43-KgZQqI-24" value="" style="endArrow=block;startArrow=block;html=1;rounded=1;fillColor=#fa6800;strokeColor=#C73500;strokeWidth=3;startFill=0;endFill=0;elbow=vertical;flowAnimation=0;startSize=11;endSize=10;sourcePerimeterSpacing=0;dashed=1;dashPattern=1 1;edgeStyle=orthogonalEdgeStyle;exitX=-0.004;exitY=0.883;exitDx=0;exitDy=0;exitPerimeter=0;jumpStyle=arc;jumpSize=8;entryX=0.671;entryY=1;entryDx=0;entryDy=0;entryPerimeter=0;" edge="1" parent="1" target="-Kn8Bb6TqAL43-KgZQqI-1">
          <mxGeometry width="50" height="50" relative="1" as="geometry">
            <mxPoint x="570" y="406.5" as="sourcePoint" />
            <mxPoint x="410" y="140" as="targetPoint" />
            <Array as="points">
              <mxPoint x="410" y="406" />
            </Array>
          </mxGeometry>
        </mxCell>
        <mxCell id="-Kn8Bb6TqAL43-KgZQqI-25" value="10Gb Eth" style="text;html=1;align=center;verticalAlign=middle;whiteSpace=wrap;rounded=0;fillColor=default;strokeColor=default;" vertex="1" parent="1">
          <mxGeometry x="330" y="230" width="90" height="50" as="geometry" />
        </mxCell>
        <mxCell id="-Kn8Bb6TqAL43-KgZQqI-26" value="Top of Rack Switch" style="text;html=1;align=center;verticalAlign=middle;whiteSpace=wrap;rounded=0;fillColor=default;strokeColor=default;" vertex="1" parent="1">
          <mxGeometry x="248.37" y="30" width="140" height="30" as="geometry" />
        </mxCell>
        <mxCell id="-Kn8Bb6TqAL43-KgZQqI-27" value="Rubrik Brik" style="text;html=1;align=center;verticalAlign=middle;whiteSpace=wrap;rounded=0;fillColor=default;strokeColor=default;" vertex="1" parent="1">
          <mxGeometry x="71" y="440" width="140" height="30" as="geometry" />
        </mxCell>
        <mxCell id="-Kn8Bb6TqAL43-KgZQqI-28" value="" style="endArrow=none;startArrow=none;html=1;rounded=1;fillColor=#d0cee2;strokeColor=#56517e;strokeWidth=3;startFill=0;endFill=0;elbow=vertical;flowAnimation=0;entryX=0.131;entryY=0.938;entryDx=0;entryDy=0;entryPerimeter=0;startSize=11;endSize=10;sourcePerimeterSpacing=0;dashed=1;dashPattern=1 1;edgeStyle=orthogonalEdgeStyle;exitX=0.37;exitY=-0.052;exitDx=0;exitDy=0;exitPerimeter=0;" edge="1" parent="1" source="-Kn8Bb6TqAL43-KgZQqI-3" target="-Kn8Bb6TqAL43-KgZQqI-1">
          <mxGeometry width="50" height="50" relative="1" as="geometry">
            <mxPoint x="256" y="389" as="sourcePoint" />
            <mxPoint x="110" y="120" as="targetPoint" />
            <Array as="points">
              <mxPoint x="120" y="120" />
              <mxPoint x="120" y="120" />
            </Array>
          </mxGeometry>
        </mxCell>
        <mxCell id="-Kn8Bb6TqAL43-KgZQqI-29" value="MGMT" style="text;html=1;align=center;verticalAlign=middle;whiteSpace=wrap;rounded=0;fillColor=default;strokeColor=default;" vertex="1" parent="1">
          <mxGeometry x="90" y="230" width="60" height="30" as="geometry" />
        </mxCell>
        <mxCell id="-Kn8Bb6TqAL43-KgZQqI-30" value="Cisco Compute" style="text;html=1;align=center;verticalAlign=middle;whiteSpace=wrap;rounded=0;fillColor=default;strokeColor=default;" vertex="1" parent="1">
          <mxGeometry x="581" y="540" width="140" height="30" as="geometry" />
        </mxCell>
      </root>
    </mxGraphModel>
  </diagram>
</mxfile>
